<svg width="147" height="85" viewBox="0 0 147 85" fill="none" xmlns="http://www.w3.org/2000/svg">
<path d="M0 0H147V85H0V0Z" fill="#222222"/>
<path d="M41.9598 45.6639C41.9598 45.8692 41.9411 46.1399 41.9038 46.4759H29.8638C30.0318 47.7826 30.6011 48.8372 31.5718 49.6399C32.5611 50.4239 33.7838 50.8159 35.2398 50.8159C37.0131 50.8159 38.4411 50.2186 39.5238 49.0239L41.0078 50.7599C40.3358 51.5439 39.4958 52.1412 38.4878 52.5519C37.4984 52.9626 36.3878 53.1679 35.1558 53.1679C33.5878 53.1679 32.1971 52.8506 30.9838 52.2159C29.7704 51.5626 28.8278 50.6572 28.1558 49.4999C27.5024 48.3426 27.1758 47.0359 27.1758 45.5799C27.1758 44.1426 27.4931 42.8452 28.1278 41.6879C28.7811 40.5306 29.6678 39.6346 30.7878 38.9999C31.9264 38.3466 33.2051 38.0199 34.6238 38.0199C36.0424 38.0199 37.3024 38.3466 38.4038 38.9999C39.5238 39.6346 40.3918 40.5306 41.0078 41.6879C41.6424 42.8452 41.9598 44.1706 41.9598 45.6639ZM34.6238 40.2879C33.3358 40.2879 32.2531 40.6799 31.3758 41.4639C30.5171 42.2479 30.0131 43.2746 29.8638 44.5439H39.3838C39.2344 43.2932 38.7211 42.2759 37.8438 41.4919C36.9851 40.6892 35.9118 40.2879 34.6238 40.2879Z" fill="white"/>
<path d="M59.2723 42.8359C60.411 43.1532 61.307 43.7319 61.9603 44.5719C62.6136 45.3932 62.9403 46.4386 62.9403 47.7079C62.9403 49.4066 62.2963 50.7132 61.0083 51.6279C59.739 52.5426 57.8816 52.9999 55.4363 52.9999H46.0843V33.3999H54.8763C57.1163 33.3999 58.843 33.8479 60.0563 34.7439C61.2883 35.6399 61.9043 36.8812 61.9043 38.4679C61.9043 39.4946 61.6616 40.3812 61.1763 41.1279C60.7096 41.8746 60.075 42.4439 59.2723 42.8359ZM48.8843 35.6679V41.9399H54.6243C56.0616 41.9399 57.163 41.6786 57.9283 41.1559C58.7123 40.6146 59.1043 39.8306 59.1043 38.8039C59.1043 37.7772 58.7123 37.0026 57.9283 36.4799C57.163 35.9386 56.0616 35.6679 54.6243 35.6679H48.8843ZM55.3243 50.7319C56.911 50.7319 58.1056 50.4706 58.9083 49.9479C59.711 49.4252 60.1123 48.6039 60.1123 47.4839C60.1123 45.2999 58.5163 44.2079 55.3243 44.2079H48.8843V50.7319H55.3243Z" fill="white"/>
<path d="M73.2397 53.1679C71.7651 53.1679 70.4397 52.8412 69.2637 52.1879C68.0877 51.5346 67.1637 50.6386 66.4917 49.4999C65.8384 48.3426 65.5117 47.0359 65.5117 45.5799C65.5117 44.1239 65.8384 42.8266 66.4917 41.6879C67.1637 40.5306 68.0877 39.6346 69.2637 38.9999C70.4397 38.3466 71.7651 38.0199 73.2397 38.0199C74.7144 38.0199 76.0304 38.3466 77.1877 38.9999C78.3637 39.6346 79.2784 40.5306 79.9317 41.6879C80.6037 42.8266 80.9397 44.1239 80.9397 45.5799C80.9397 47.0359 80.6037 48.3426 79.9317 49.4999C79.2784 50.6386 78.3637 51.5346 77.1877 52.1879C76.0304 52.8412 74.7144 53.1679 73.2397 53.1679ZM73.2397 50.8159C74.1917 50.8159 75.0411 50.6012 75.7877 50.1719C76.5531 49.7239 77.1504 49.1079 77.5797 48.3239C78.0091 47.5212 78.2237 46.6066 78.2237 45.5799C78.2237 44.5532 78.0091 43.6479 77.5797 42.8639C77.1504 42.0612 76.5531 41.4452 75.7877 41.0159C75.0411 40.5866 74.1917 40.3719 73.2397 40.3719C72.2877 40.3719 71.4291 40.5866 70.6637 41.0159C69.9171 41.4452 69.3197 42.0612 68.8717 42.8639C68.4424 43.6479 68.2277 44.5532 68.2277 45.5799C68.2277 46.6066 68.4424 47.5212 68.8717 48.3239C69.3197 49.1079 69.9171 49.7239 70.6637 50.1719C71.4291 50.6012 72.2877 50.8159 73.2397 50.8159Z" fill="white"/>
<path d="M91.0132 53.1679C89.5385 53.1679 88.2132 52.8412 87.0372 52.1879C85.8612 51.5346 84.9372 50.6386 84.2652 49.4999C83.6118 48.3426 83.2852 47.0359 83.2852 45.5799C83.2852 44.1239 83.6118 42.8266 84.2652 41.6879C84.9372 40.5306 85.8612 39.6346 87.0372 38.9999C88.2132 38.3466 89.5385 38.0199 91.0132 38.0199C92.4878 38.0199 93.8038 38.3466 94.9612 38.9999C96.1372 39.6346 97.0518 40.5306 97.7052 41.6879C98.3772 42.8266 98.7132 44.1239 98.7132 45.5799C98.7132 47.0359 98.3772 48.3426 97.7052 49.4999C97.0518 50.6386 96.1372 51.5346 94.9612 52.1879C93.8038 52.8412 92.4878 53.1679 91.0132 53.1679ZM91.0132 50.8159C91.9652 50.8159 92.8145 50.6012 93.5612 50.1719C94.3265 49.7239 94.9238 49.1079 95.3532 48.3239C95.7825 47.5212 95.9972 46.6066 95.9972 45.5799C95.9972 44.5532 95.7825 43.6479 95.3532 42.8639C94.9238 42.0612 94.3265 41.4452 93.5612 41.0159C92.8145 40.5866 91.9652 40.3719 91.0132 40.3719C90.0612 40.3719 89.2025 40.5866 88.4372 41.0159C87.6905 41.4452 87.0932 42.0612 86.6452 42.8639C86.2158 43.6479 86.0012 44.5532 86.0012 45.5799C86.0012 46.6066 86.2158 47.5212 86.6452 48.3239C87.0932 49.1079 87.6905 49.7239 88.4372 50.1719C89.2025 50.6012 90.0612 50.8159 91.0132 50.8159Z" fill="white"/>
<path d="M109.207 44.2919L105.623 47.9319V52.9999H102.823V33.3999H105.623V44.3479L116.263 33.3999H119.455L111.083 42.2199L119.987 52.9999H116.711L109.207 44.2919Z" fill="white"/>
</svg>
